<svg width="149" height="47" viewBox="0 0 149 47" fill="none" xmlns="http://www.w3.org/2000/svg">
<path d="M82.4 9.89993C84.2 9.89993 85.7 8.39995 85.7 6.59995C85.7 4.79995 84.2 3.29993 82.4 3.29993C80.6 3.29993 79.1 4.79995 79.1 6.59995C79 8.39995 80.5 9.89993 82.4 9.89993Z" fill="#427D1B"/>
<path d="M39.2 21.2999C38.8 21.5999 38.6 22.3999 39.1 22.9999C39.5 23.4999 40.4 23.4999 40.8 23.0999C41.3 22.5999 41.4 21.8999 41 21.3999C40.5 20.8999 39.7 20.7999 39.2 21.2999Z" fill="#427D1B"/>
<path d="M46.3 21.1C45.7 20.4 44.6 20.2999 43.8 20.9999C43.2 21.4999 43 22.6999 43.7 23.3999C44.2 24.0999 45.6 24.2 46.1 23.6C46.8 23.1 47 21.9 46.3 21.1Z" fill="#427D1B"/>
<path d="M42.2 17.7999C41.9 17.9999 41.9 18.4999 42.1 18.7999C42.4 19.0999 42.8 19.0999 43.1 18.8999C43.4 18.6999 43.4 18.1999 43.2 17.8999C42.9 17.6999 42.5 17.5999 42.2 17.7999Z" fill="#427D1B"/>
<path d="M45.6 25.1C45.3 25.3 45.3 25.8 45.5 26.1C45.8 26.4 46.2 26.4 46.5 26.2C46.8 26 46.8 25.5 46.6 25.2C46.4 24.9 45.9 24.8 45.6 25.1Z" fill="#427D1B"/>
<path d="M26.5 41.2C28.3 41.2 29.8 39.7 29.8 37.9C29.8 36.1 28.3 34.6 26.5 34.6C24.7 34.6 23.2 36.1 23.2 37.9C23.2 39.7 24.6 41.2 26.5 41.2Z" fill="#427D1B"/>
<path d="M85.3 10.6V30.8C85.3 32.4 84 33.6 82.4 33.6C80.8 33.6 79.5 32.3 79.5 30.8V10.6C80.3 11.2 81.3 11.5 82.4 11.5C83.4 11.6 84.4 11.2 85.3 10.6Z" fill="#2A5650"/>
<path d="M67.8 10.7C65.1 10.7 63.1 11.6999 61.7 13.8999V10.7999V10.7C61.7 9.19995 60.4 7.99994 58.9 7.99994C57.4 7.99994 56.1 9.19995 56.1 10.7V43.5999C56.1 45.1999 57.4 46.4999 59 46.4999C60.6 46.4999 61.9 45.1999 61.9 43.5999V30.3999C63.5 32.6999 65.7 33.7999 68.4 33.7999C74.1 33.7999 77.4 29.0999 77.4 22.4999C77.3 14.9999 73.3 10.7 67.8 10.7ZM66.4 28.7999C63.2 28.7999 61.6 26.4 61.6 21.7C61.6 18 63.7 15.3999 66.5 15.3999C69.4 15.3999 71.4 18.0999 71.4 21.9999C71.4 26.4999 69.8 28.7999 66.4 28.7999Z" fill="#2A5650"/>
<path d="M125.2 11.2H115.1C115.1 11.1 115.1 11.1 115.1 11C115.1 10.9 115.1 10.8 115.1 10.7C115.1 10.6 115.1 10.5 115.1 10.4C115.1 10.3 115.1 10.1 115.1 9.99997C115.1 9.79997 115.1 9.69997 115.1 9.49997C115.1 9.29997 115.1 9.19997 115.1 8.99997C115.1 8.79997 115.1 8.69997 115.1 8.49997C115.1 8.29997 115.1 8.09997 115.1 7.99997C115.1 7.79997 115.1 7.69997 115.1 7.49997C115.1 7.29997 115.1 7.19997 115.1 6.99997C115.1 6.89997 115.1 6.69998 115.1 6.59998C115.1 6.49998 115.1 6.29998 115.1 6.19998C115.1 6.09998 115.1 5.99996 115.1 5.89996C115.1 5.79996 115.1 5.69998 115.1 5.69998C115.1 5.59998 115.1 5.59997 115.1 5.49997C115.1 5.29997 115.1 5.19997 115.1 4.99997C115.1 4.79997 115 4.59996 114.9 4.39996C114.8 4.19996 114.7 3.99996 114.6 3.79996C114.5 3.59996 114.3 3.49996 114.2 3.29996C114 3.19996 113.9 2.99996 113.7 2.89996C113.5 2.79996 113.3 2.69998 113.1 2.69998C112.9 2.59998 112.7 2.59998 112.4 2.59998C110.9 2.59998 109.6 3.79996 109.5 5.29996V5.49997V24.9C109.5 29.6 112.1 33.7 118.5 33.7C124.7 33.7 127.4 29.6 127.4 24.9V21.4C127.4 19.9 126.2 18.7 124.7 18.7C123.2 18.7 122 19.9 122 21.4V24.4C122 27.1 120.9 28.7 118.6 28.7C116.2 28.7 115.3 27.1 115.3 24.3V15.3H125.4C126.4 15.3 127.3 14.5 127.4 13.5C127.4 13.4 127.4 13.4 127.4 13.3C127.4 13.2 127.4 13.2 127.4 13.1C127.1 12 126.2 11.2 125.2 11.2Z" fill="#2A5650"/>
<path d="M139.3 10.7C138.9 10.7 138.4 10.7 138 10.7C137.6 10.7 137.2 10.7999 136.8 10.7999C136.4 10.7999 136.1 10.8999 135.7 10.9999C135.4 11.0999 135 11.1999 134.7 11.2999C134.4 11.3999 134.1 11.4999 133.8 11.5999C133.5 11.6999 133.3 11.7999 133 11.9999C132.8 12.0999 132.5 12.2999 132.3 12.3999C132.1 12.5999 131.9 12.6999 131.7 12.8999C131.5 13.0999 131.3 13.2999 131.2 13.4999C131 13.6999 130.9 13.8999 130.8 14.0999C130.7 14.2999 130.5 14.4999 130.4 14.7999C130.3 14.9999 130.2 15.2999 130.1 15.4999C130 15.6999 129.9 16 129.9 16.2C129.9 16.4 129.8 16.5999 129.8 16.7999C129.8 16.7999 129.8 16.7999 129.8 16.8999C129.8 16.9999 129.8 17.1 129.8 17.2C129.8 17.3 129.8 17.3999 129.9 17.4999C130 17.6999 130 17.8999 130.1 18.0999C130.1 18.1999 130.2 18.1999 130.2 18.2999C130.7 19.0999 131.5 19.5999 132.5 19.5999C133.5 19.5999 134.3 19.0999 134.8 18.2999C134.9 18.0999 135 17.8999 135.1 17.5999C135.1 17.4999 135.1 17.4999 135.2 17.3999C135.7 15.9999 136.8 15.0999 139 15.0999C141.3 15.0999 142.7 15.9999 142.7 17.3999C142.7 18.8999 141.9 19.4999 139 19.8999C133.2 20.6999 128.9 21.4 128.9 27.7C128.9 31.3 131.2 33.7 136.2 33.7C139.1 33.7 141.5 32.6999 142.8 31.0999C142.8 31.2999 142.8 31.5 142.9 31.7C143 32.2 143.3 32.6999 143.7 33.0999C144.2 33.5999 145 33.9999 145.7 33.9999C146.5 33.9999 147.2 33.6999 147.7 33.0999C148.2 32.5999 148.5 31.8999 148.5 31.0999V19.2C148.6 13.8 146.2 10.7 139.3 10.7ZM142.8 24.7999C142.8 27.3999 140.5 29.5999 137.6 29.5999C135.8 29.5999 134.8 28.7999 134.8 27.0999C134.8 25.1999 135.9 24.3 139.2 23.7C141.4 23.3 142.4 22.9999 143 22.3999L142.8 24.7999Z" fill="#2A5650"/>
<path d="M12.3 10.7999C9.6 10.7999 7.4 11.9 5.8 14.2V3.29993C5.7 1.79993 4.4 0.699951 2.9 0.699951C1.4 0.699951 0.2 1.79993 0 3.29993V33.2999C0.1 34.7999 1.3 35.8999 2.8 35.8999C4.3 35.8999 5.5 34.7999 5.6 33.2999V33.0999V30.5999C7 32.7999 9 33.7999 11.7 33.7999C17.2 33.7999 21.2 29.3999 21.2 21.9999C21.3 15.4999 17.9 10.7999 12.3 10.7999ZM10.5 29.2C7.7 29.2 5.6 26.5999 5.6 22.8999C5.6 18.0999 7.2 15.7999 10.4 15.7999C13.8 15.7999 15.4 18.0999 15.4 22.5999C15.4 26.4999 13.3 29.2 10.5 29.2Z" fill="#2A5650"/>
<path d="M29.4 13.7999C29.4 13.8999 29.4 13.8999 29.4 13.9999C29.4 14.0999 29.4 14.1 29.4 14.2C29.4 14.3 29.4 14.2999 29.4 14.3999C29.4 14.2999 29.4 14.4999 29.4 14.3999C29.4 14.4999 29.4 14.6 29.4 14.7C29.4 14.8 29.4 14.8999 29.4 14.9999C29.4 15.0999 29.4 15.2999 29.4 15.3999C29.4 15.4999 29.4 15.6999 29.4 15.7999C29.4 15.8999 29.4 16.1 29.4 16.2C29.4 16.4 29.4 16.5 29.4 16.7C29.4 16.9 29.4 17 29.4 17.2C29.4 17.4 29.4 17.6 29.4 17.7C29.4 17.9 29.4 18.0999 29.4 18.2999C29.4 18.4999 29.4 18.6999 29.4 18.8999C29.4 19.0999 29.4 19.2999 29.4 19.4999C29.4 19.6999 29.4 19.8999 29.4 20.0999C29.4 20.2999 29.4 20.5 29.4 20.7C29.4 20.9 29.4 21.0999 29.4 21.2999C29.4 21.4999 29.4 21.6999 29.4 21.8999C29.4 22.0999 29.4 22.2999 29.4 22.4999C29.4 22.6999 29.4 22.8999 29.4 23.0999C29.4 23.2999 29.4 23.4999 29.4 23.7999C29.4 23.9999 29.4 24.1999 29.4 24.4999C29.4 24.6999 29.4 24.8999 29.4 25.0999C29.4 25.2999 29.4 25.5 29.4 25.7C29.4 25.9 29.4 26.0999 29.4 26.2999C29.4 26.4999 29.4 26.6999 29.4 26.8999C29.4 27.0999 29.4 27.2999 29.4 27.4999C29.4 27.6999 29.4 27.8999 29.4 28.0999C29.4 28.2999 29.4 28.5 29.4 28.7C29.4 28.9 29.4 29.0999 29.4 29.2999C29.4 29.4999 29.4 29.6999 29.4 29.7999C29.4 29.9999 29.4 30.0999 29.4 30.2999C29.4 30.4999 29.4 30.5999 29.4 30.7999C29.4 30.9999 29.4 31.0999 29.4 31.2999C29.4 31.3999 29.4 31.6 29.4 31.7C29.4 31.8 29.4 31.9999 29.4 32.0999C29.4 32.1999 29.4 32.2999 29.4 32.4999C29.4 32.5999 29.4 32.6999 29.4 32.7999C29.4 32.8999 29.4 32.9999 29.4 33.0999C29.4 33.1999 29.4 33.2999 29.4 33.2999C29.4 33.3999 29.4 33.3999 29.4 33.4999V33.5999V33.7C28.6 33.1 27.6 32.7999 26.5 32.7999C25.4 32.7999 24.4 33.1 23.6 33.7V13.7V13.5999C23.6 11.9999 24.9 10.7999 26.5 10.7999C26.8 10.7999 27.1 10.7999 27.3 10.8999C27.6 10.9999 27.8 11.0999 28.1 11.2999C28.3 11.4999 28.5 11.5999 28.7 11.7999C28.9 11.9999 29 12.1999 29.1 12.4999C29.2 12.7999 29.3 12.9999 29.3 13.2999C29.4 13.4999 29.4 13.5999 29.4 13.7999C29.4 13.6999 29.4 13.6999 29.4 13.7999Z" fill="#2A5650"/>
<path d="M42.7 10.8999C35.8 10.8999 31.4 15.4999 31.4 22.3999C31.4 29.1999 35.6 33.8999 42.7 33.8999C49.5 33.8999 53.8 29.2999 53.8 22.3999C53.8 15.3999 49.6 10.8999 42.7 10.8999ZM49.8 24.9999C49.7 25.4999 49.4 25.7999 49 26.0999C48.7 26.2999 48.4 26.4999 48.2 26.6999C47.9 26.8999 47.6 27.2999 47.4 27.5999C47.3 27.9999 47.1 28.3999 46.9 28.6999C46.6 29.1999 46.3 29.5999 45.8 29.9999C45.2 30.3999 44.4 30.3999 43.8 29.9999C43.5 29.7999 43.3 29.6999 43.1 29.4999C42.8 29.2999 42.4 29.0999 42 29.0999C41.5 29.0999 41.1 29.0999 40.7 29.1999C40.4 29.2999 40.1 29.3999 39.8 29.3999C39.2 29.4999 38.7 29.3999 38.2 29.0999C37.8 28.8999 37.6 28.5999 37.5 28.1999C37.5 27.9999 37.5 27.6999 37.5 27.3999C37.7 26.6999 37.6 26.0999 37.2 25.4999C37 25.1999 36.7 24.7999 36.4 24.4999C36 23.9999 35.7 23.4999 35.5 22.8999C35.4 22.2999 35.3 21.7999 35.5 21.1999C35.6 20.6999 35.9 20.3999 36.3 20.1999C36.5 20.0999 36.8 19.9999 37 19.8999C37.3 19.6999 37.6 19.5999 37.8 19.2999C38 18.9999 38.2 18.6999 38.3 18.2999C38.4 17.8999 38.4 17.5999 38.5 17.1999C38.7 16.1999 39.3 15.4999 40.2 14.9999C40.6 14.7999 41.1 14.5999 41.5 14.5999C41.5 14.5999 41.5 14.5999 41.6 14.5999H42.1C42.3 14.5999 42.4 14.6999 42.6 14.6999C43 14.7999 43.4 14.9999 43.8 15.1999C44.2 15.3999 44.5 15.6999 44.8 15.8999C45 15.9999 45.2 16.1999 45.4 16.2999C45.7 16.4999 46 16.5999 46.3 16.5999C46.6 16.5999 47 16.6999 47.3 16.7999C47.9 17.0999 48.1 17.5999 48.2 18.1999C48.2 18.4999 48.2 18.8999 48.1 19.1999C48 19.4999 48 19.7999 48 20.1999C48 20.6999 48.2 21.0999 48.4 21.4999C48.6 21.7999 48.8 21.9999 48.9 22.2999C49.3 22.7999 49.6 23.2999 49.7 23.9999C49.9 24.2999 49.9 24.5999 49.8 24.9999Z" fill="#2A5650"/>
<path d="M106.6 25.2999C106.1 24.5999 105.4 24.2 104.4 24.2C103.5 24.2 102.7 24.5999 102.1 25.2999C101.9 25.4999 101.7 25.7999 101.6 26.0999V26.2C101 27.9 99.5 28.8999 97.5 28.8999C95.2 28.8999 93.2 26.5999 93.2 21.7999C93.2 16.9999 95.2 15.4999 97.7 15.4999C98.7 15.4999 99.7 15.7999 100.5 16.4999C100.9 16.7999 101.2 17.2 101.4 17.7C101.9 18.8 103 19.7 104.2 19.7C104.8 19.7 105.4 19.4999 105.9 19.0999C106 18.9999 106.1 18.8999 106.2 18.7999C106.3 18.6999 106.4 18.5999 106.5 18.4999C106.9 17.9999 107.2 17.3 107 16.7C106.8 16 106.6 15.3999 106.2 14.7999C106.1 14.5999 105.9 14.4 105.8 14.2C105.6 14 105.5 13.7999 105.3 13.5999C105.1 13.3999 104.9 13.1999 104.7 13.0999C104.5 12.8999 104.3 12.7999 104.1 12.5999C103.9 12.3999 103.7 12.3 103.4 12.2C103.2 12.1 102.9 11.8999 102.7 11.7999C102.5 11.6999 102.2 11.5999 102 11.4999C101.7 11.3999 101.5 11.3 101.2 11.2C100.9 11.1 100.6 10.9999 100.4 10.9999C100.1 10.8999 99.8 10.8999 99.5 10.7999C99.2 10.7999 98.9 10.7 98.6 10.7C98.3 10.7 98 10.7 97.7 10.7C91.6 10.7 87.4 14.0999 87.4 21.9999C87.4 29.8999 91.5 33.7999 97.5 33.7999C99.6 33.7999 101.7 33.2999 103.4 32.0999C104.2 31.5999 105 30.8999 105.6 30.0999C106.2 29.3999 106.9 28.3999 107 27.4999C107.2 26.5999 107 25.8999 106.6 25.2999Z" fill="#2A5650"/>
</svg>
